<svg width="40" height="28" viewBox="0 0 40 28" fill="none"
                                            xmlns="http://www.w3.org/2000/svg">
                                            <path
                                                d="M36.5 27.75H3.5C2.58865 27.7489 1.71495 27.3864 1.07053 26.742C0.426106 26.0976 0.0635917 25.2238 0.0625 24.3125V3.6875C0.0635917 2.77615 0.426106 1.90245 1.07053 1.25803C1.71495 0.613606 2.58865 0.251092 3.5 0.25H36.5C37.4113 0.251092 38.2851 0.613606 38.9295 1.25803C39.5739 1.90245 39.9364 2.77615 39.9375 3.6875V24.3125C39.9364 25.2238 39.5739 26.0976 38.9295 26.742C38.2851 27.3864 37.4113 27.7489 36.5 27.75ZM3.5 1.625C2.95299 1.625 2.42839 1.8423 2.04159 2.22909C1.6548 2.61589 1.4375 3.14049 1.4375 3.6875V24.3125C1.4375 24.8595 1.6548 25.3841 2.04159 25.7709C2.42839 26.1577 2.95299 26.375 3.5 26.375H36.5C37.047 26.375 37.5716 26.1577 37.9584 25.7709C38.3452 25.3841 38.5625 24.8595 38.5625 24.3125V3.6875C38.5625 3.14049 38.3452 2.61589 37.9584 2.22909C37.5716 1.8423 37.047 1.625 36.5 1.625H3.5Z"
                                                fill="black" />
                                            <path
                                                d="M9.6875 11.9375H5.5625C5.01549 11.9375 4.49089 11.7202 4.10409 11.3334C3.7173 10.9466 3.5 10.422 3.5 9.875V5.75C3.5 5.20299 3.7173 4.67839 4.10409 4.29159C4.49089 3.9048 5.01549 3.6875 5.5625 3.6875H9.6875C10.2345 3.6875 10.7591 3.9048 11.1459 4.29159C11.5327 4.67839 11.75 5.20299 11.75 5.75V9.875C11.75 10.422 11.5327 10.9466 11.1459 11.3334C10.7591 11.7202 10.2345 11.9375 9.6875 11.9375ZM5.5625 5.0625C5.38016 5.0625 5.2053 5.13493 5.07636 5.26386C4.94743 5.39279 4.875 5.56766 4.875 5.75V9.875C4.875 10.0573 4.94743 10.2322 5.07636 10.3611C5.2053 10.4901 5.38016 10.5625 5.5625 10.5625H9.6875C9.86984 10.5625 10.0447 10.4901 10.1736 10.3611C10.3026 10.2322 10.375 10.0573 10.375 9.875V5.75C10.375 5.56766 10.3026 5.39279 10.1736 5.26386C10.0447 5.13493 9.86984 5.0625 9.6875 5.0625H5.5625ZM32.375 24.3125C31.2963 24.3176 30.259 23.8977 29.4875 23.1437C29.0959 22.7589 28.7848 22.2999 28.5722 21.7937C28.3596 21.2874 28.2499 20.7439 28.2494 20.1948C28.2489 19.6458 28.3576 19.1021 28.5692 18.5954C28.7808 18.0887 29.0911 17.6292 29.482 17.2436C29.9649 16.7697 30.5569 16.4218 31.2059 16.2306C31.8549 16.0394 32.541 16.0108 33.2037 16.1473C33.8663 16.2838 34.4853 16.5812 35.0059 17.0133C35.5265 17.4454 35.9329 17.9989 36.1892 18.6251C36.4454 19.2513 36.5437 19.9309 36.4754 20.604C36.4071 21.2771 36.1743 21.9231 35.7974 22.485C35.4206 23.047 34.9113 23.5076 34.3145 23.8262C33.7176 24.1449 33.0516 24.3119 32.375 24.3125ZM32.375 17.4375C31.6557 17.4346 30.9642 17.7149 30.45 18.2178C30.1885 18.4756 29.9809 18.7829 29.8394 19.1217C29.6979 19.4606 29.6253 19.8242 29.6258 20.1914C29.6263 20.5586 29.6999 20.922 29.8424 21.2605C29.9848 21.5989 30.1933 21.9056 30.4555 22.1627C30.7788 22.4759 31.1741 22.7049 31.6066 22.8297C32.039 22.9545 32.4956 22.9712 32.936 22.8784C33.3765 22.7856 33.7874 22.586 34.1328 22.2973C34.4781 22.0086 34.7473 21.6395 34.9167 21.2225C35.0861 20.8054 35.1506 20.3532 35.1044 19.9054C35.0582 19.4577 34.9029 19.0281 34.6519 18.6544C34.401 18.2807 34.0621 17.9743 33.6651 17.7621C33.2681 17.55 32.8251 17.4385 32.375 17.4375Z"
                                                fill="black" />
                                            <path
                                                d="M27.5625 24.3125C26.887 24.3108 26.2222 24.1431 25.6266 23.8243C25.031 23.5056 24.5228 23.0454 24.1467 22.4843C23.7706 21.9231 23.538 21.2782 23.4695 20.6062C23.4009 19.9341 23.4985 19.2555 23.7535 18.63C24.0086 18.0045 24.4134 17.4511 24.9323 17.0187C25.4513 16.5862 26.0685 16.2878 26.7298 16.1497C27.391 16.0115 28.0761 16.0379 28.7248 16.2265C29.3734 16.4151 29.9659 16.7601 30.45 17.2313C30.515 17.2948 30.5668 17.3707 30.6023 17.4544C30.6378 17.5381 30.6563 17.628 30.6568 17.7189C30.6573 17.8098 30.6398 17.9 30.6052 17.9841C30.5707 18.0682 30.5198 18.1446 30.4555 18.2089C30.1928 18.4664 29.9841 18.7737 29.8416 19.1129C29.6991 19.452 29.6258 19.8162 29.6258 20.1841C29.6258 20.5519 29.6991 20.9161 29.8416 21.2553C29.9841 21.5944 30.1928 21.9017 30.4555 22.1593C30.5208 22.2237 30.5726 22.3005 30.6078 22.3852C30.643 22.47 30.6608 22.5609 30.6603 22.6527C30.6598 22.7444 30.6409 22.8351 30.6048 22.9195C30.5687 23.0038 30.5161 23.0801 30.45 23.1437C29.6785 23.8977 28.6412 24.3176 27.5625 24.3125ZM27.5625 17.4375C27.139 17.4389 26.7215 17.538 26.3426 17.7272C25.9637 17.9164 25.6337 18.1906 25.3782 18.5283C25.1227 18.8661 24.9486 19.2583 24.8696 19.6744C24.7906 20.0904 24.8087 20.5191 24.9226 20.927C25.0365 21.3349 25.243 21.711 25.5262 22.026C25.8093 22.3409 26.1614 22.5862 26.5549 22.7428C26.9484 22.8993 27.3728 22.9628 27.7949 22.9284C28.217 22.8939 28.6254 22.7625 28.9884 22.5443C28.5077 21.8524 28.25 21.03 28.25 20.1875C28.25 19.345 28.5077 18.5226 28.9884 17.8307C28.5579 17.5719 28.0648 17.4359 27.5625 17.4375ZM11.0625 24.3125H4.1875C4.00516 24.3125 3.8303 24.2401 3.70136 24.1111C3.57243 23.9822 3.5 23.8073 3.5 23.625C3.5 23.4427 3.57243 23.2678 3.70136 23.1389C3.8303 23.0099 4.00516 22.9375 4.1875 22.9375H11.0625C11.2448 22.9375 11.4197 23.0099 11.5486 23.1389C11.6776 23.2678 11.75 23.4427 11.75 23.625C11.75 23.8073 11.6776 23.9822 11.5486 24.1111C11.4197 24.2401 11.2448 24.3125 11.0625 24.3125ZM21.375 24.3125H14.5C14.3177 24.3125 14.1428 24.2401 14.0139 24.1111C13.8849 23.9822 13.8125 23.8073 13.8125 23.625C13.8125 23.4427 13.8849 23.2678 14.0139 23.1389C14.1428 23.0099 14.3177 22.9375 14.5 22.9375H21.375C21.5573 22.9375 21.7322 23.0099 21.8611 23.1389C21.9901 23.2678 22.0625 23.4427 22.0625 23.625C22.0625 23.8073 21.9901 23.9822 21.8611 24.1111C21.7322 24.2401 21.5573 24.3125 21.375 24.3125ZM21.375 20.875H17.25C17.0677 20.875 16.8928 20.8026 16.7639 20.6736C16.6349 20.5447 16.5625 20.3698 16.5625 20.1875C16.5625 20.0052 16.6349 19.8303 16.7639 19.7014C16.8928 19.5724 17.0677 19.5 17.25 19.5H21.375C21.5573 19.5 21.7322 19.5724 21.8611 19.7014C21.9901 19.8303 22.0625 20.0052 22.0625 20.1875C22.0625 20.3698 21.9901 20.5447 21.8611 20.6736C21.7322 20.8026 21.5573 20.875 21.375 20.875ZM8.3125 14.6875H4.1875C4.00516 14.6875 3.8303 14.6151 3.70136 14.4861C3.57243 14.3572 3.5 14.1823 3.5 14C3.5 13.8177 3.57243 13.6428 3.70136 13.5139C3.8303 13.3849 4.00516 13.3125 4.1875 13.3125H8.3125C8.49484 13.3125 8.6697 13.3849 8.79864 13.5139C8.92757 13.6428 9 13.8177 9 14C9 14.1823 8.92757 14.3572 8.79864 14.4861C8.6697 14.6151 8.49484 14.6875 8.3125 14.6875ZM15.1875 14.6875H11.0625C10.8802 14.6875 10.7053 14.6151 10.5764 14.4861C10.4474 14.3572 10.375 14.1823 10.375 14C10.375 13.8177 10.4474 13.6428 10.5764 13.5139C10.7053 13.3849 10.8802 13.3125 11.0625 13.3125H15.1875C15.3698 13.3125 15.5447 13.3849 15.6736 13.5139C15.8026 13.6428 15.875 13.8177 15.875 14C15.875 14.1823 15.8026 14.3572 15.6736 14.4861C15.5447 14.6151 15.3698 14.6875 15.1875 14.6875ZM22.0625 14.6875H17.9375C17.7552 14.6875 17.5803 14.6151 17.4514 14.4861C17.3224 14.3572 17.25 14.1823 17.25 14C17.25 13.8177 17.3224 13.6428 17.4514 13.5139C17.5803 13.3849 17.7552 13.3125 17.9375 13.3125H22.0625C22.2448 13.3125 22.4197 13.3849 22.5486 13.5139C22.6776 13.6428 22.75 13.8177 22.75 14C22.75 14.1823 22.6776 14.3572 22.5486 14.4861C22.4197 14.6151 22.2448 14.6875 22.0625 14.6875ZM28.9375 14.6875H24.8125C24.6302 14.6875 24.4553 14.6151 24.3264 14.4861C24.1974 14.3572 24.125 14.1823 24.125 14C24.125 13.8177 24.1974 13.6428 24.3264 13.5139C24.4553 13.3849 24.6302 13.3125 24.8125 13.3125H28.9375C29.1198 13.3125 29.2947 13.3849 29.4236 13.5139C29.5526 13.6428 29.625 13.8177 29.625 14C29.625 14.1823 29.5526 14.3572 29.4236 14.4861C29.2947 14.6151 29.1198 14.6875 28.9375 14.6875ZM27.5625 4.375H24.8125C24.6302 4.375 24.4553 4.30257 24.3264 4.17364C24.1974 4.04471 24.125 3.86984 24.125 3.6875C24.125 3.50516 24.1974 3.33029 24.3264 3.20136C24.4553 3.07243 24.6302 3 24.8125 3H27.5625C27.7448 3 27.9197 3.07243 28.0486 3.20136C28.1776 3.33029 28.25 3.50516 28.25 3.6875C28.25 3.86984 28.1776 4.04471 28.0486 4.17364C27.9197 4.30257 27.7448 4.375 27.5625 4.375ZM35.8125 14.6875H31.6875C31.5052 14.6875 31.3303 14.6151 31.2014 14.4861C31.0724 14.3572 31 14.1823 31 14C31 13.8177 31.0724 13.6428 31.2014 13.5139C31.3303 13.3849 31.5052 13.3125 31.6875 13.3125H35.8125C35.9948 13.3125 36.1697 13.3849 36.2986 13.5139C36.4276 13.6428 36.5 13.8177 36.5 14C36.5 14.1823 36.4276 14.3572 36.2986 14.4861C36.1697 14.6151 35.9948 14.6875 35.8125 14.6875ZM36.5 7.125C36.3177 7.125 36.1428 7.05257 36.0139 6.92364C35.8849 6.79471 35.8125 6.61984 35.8125 6.4375V5.0625C35.8125 4.88016 35.7401 4.70529 35.6111 4.57636C35.4822 4.44743 35.3073 4.375 35.125 4.375H29.625C29.4427 4.375 29.2678 4.30257 29.1389 4.17364C29.0099 4.04471 28.9375 3.86984 28.9375 3.6875C28.9375 3.50516 29.0099 3.33029 29.1389 3.20136C29.2678 3.07243 29.4427 3 29.625 3H35.125C35.672 3 36.1966 3.2173 36.5834 3.60409C36.9702 3.99089 37.1875 4.51549 37.1875 5.0625V6.4375C37.1875 6.61984 37.1151 6.79471 36.9861 6.92364C36.8572 7.05257 36.6823 7.125 36.5 7.125Z"
                                                fill="black" />
                                        </svg>