<svg width="22" height="22" viewBox="0 0 22 22" fill="none" xmlns="http://www.w3.org/2000/svg">
<g clip-path="url(#clip0_39_987)">
<path d="M21.8624 5.20313C21.8366 5.02696 21.7937 4.85508 21.7292 4.72188C21.6132 4.48555 21.5015 4.46406 21.0632 4.48555C20.496 4.51133 19.6839 4.48555 18.8245 4.45117C18.8245 4.21485 18.8331 4.10313 18.8331 4.10313C18.889 3.4543 19.1812 3.43281 19.2972 3.43281L21.1448 3.43281C21.3081 3.43281 21.4585 3.43281 21.5745 3.51016C21.7249 3.60899 21.7894 3.89688 21.8452 4.39961C21.8538 4.47266 21.8581 4.56719 21.8624 4.67891L21.8624 4.6832C21.8624 4.71758 21.8667 4.76055 21.8667 4.80781L21.8667 4.85508C21.8667 4.9711 21.8667 5.1 21.8624 5.20313ZM0.128809 5.20313C0.15459 5.02695 0.197559 4.85508 0.262012 4.72187C0.378027 4.48555 0.489746 4.46406 0.928027 4.48555C1.49521 4.51133 2.30732 4.48555 3.1667 4.45117C3.1667 4.21484 3.15811 4.10312 3.15811 4.10312C3.10225 3.4543 2.81006 3.43281 2.69404 3.43281L0.846387 3.43281C0.683106 3.43281 0.545606 3.43281 0.416699 3.51016C0.262012 3.60039 0.201856 3.89687 0.145996 4.39961C0.137402 4.47266 0.133106 4.56719 0.128809 4.67891L0.128809 4.6832C0.128809 4.71758 0.124512 4.76055 0.124512 4.80781L0.124512 4.85508C0.128809 4.97109 0.128809 5.1 0.128809 5.20313Z" fill="black"/>
<path d="M22 9.25527C22 10.5744 21.8281 11.8635 21.7594 12.0053C21.7078 12.1084 21.377 12.3791 20.625 12.8904C19.8645 13.4104 19.8816 13.333 19.7441 13.6725C19.8688 13.7111 19.9891 13.7842 20.0621 13.7928C20.2254 13.81 20.234 13.6553 20.5734 13.6553C20.9129 13.6553 21.6477 13.7455 21.798 13.8959C21.9484 14.0463 21.9957 14.0979 21.9957 14.2311C21.9957 14.3643 21.9184 14.6393 21.7723 14.8025C21.6262 14.9658 21.0031 15.0475 20.6379 15.0947C20.2727 15.142 20.2211 15.0947 20.1266 15.0346C19.9762 14.94 19.9676 14.0764 19.9676 14.0764L19.6109 14.0678C19.3789 14.6393 19.0566 15.7908 18.5539 16.6975C18.0039 17.6857 17.4281 17.9951 17.1875 18.0725C16.9512 18.1455 16.7363 18.1971 15.125 18.3604C13.4793 18.5322 12.1687 18.5537 11 18.5537C9.83125 18.5537 8.5207 18.5279 6.875 18.3604C5.26367 18.1928 5.04883 18.1455 4.8125 18.0725C4.57617 17.9994 3.99609 17.6857 3.44609 16.6975C2.94336 15.7908 2.62109 14.6393 2.38906 14.0678L2.03242 14.0764C2.03242 14.0764 2.02813 14.94 1.87344 15.0346C1.77891 15.0947 1.72734 15.1463 1.36211 15.0947C0.996875 15.0432 0.373828 14.9658 0.227735 14.8025C0.081641 14.6393 0.00429724 14.3643 0.00429725 14.2311C0.00429726 14.0979 0.0515629 14.042 0.201954 13.8959C0.352344 13.7455 1.08711 13.6553 1.42656 13.6553C1.76602 13.6553 1.77461 13.81 1.93789 13.7928C2.01094 13.7842 2.13555 13.7111 2.25586 13.6725C2.11406 13.333 2.13555 13.4104 1.375 12.8904C0.623047 12.3748 0.287891 12.1084 0.240626 12.0053C0.171876 11.8635 6.97572e-07 10.5744 8.12895e-07 9.25527C9.28218e-07 7.93613 0.0945323 6.7502 0.0945323 6.3291C0.0945323 6.15293 0.0945324 5.84355 0.133204 5.54707C0.158986 5.3709 0.197657 5.19902 0.266407 5.06582C0.382423 4.82949 0.489845 4.80801 0.932423 4.82949C1.49961 4.85527 2.32031 4.82949 3.1668 4.79512C3.73399 4.77363 4.31406 4.75215 4.82969 4.73926C6.11875 4.71348 5.74063 4.92832 6.29063 4.91973C6.84063 4.91113 9.01055 4.8209 10.9957 4.8209C12.9809 4.8209 15.1551 4.91114 15.7008 4.91973C16.2508 4.92832 15.8727 4.71348 17.1617 4.73926C17.6773 4.74785 18.2574 4.77363 18.8246 4.79512C19.6711 4.8252 20.4961 4.85527 21.059 4.82949C21.5016 4.80801 21.609 4.82949 21.725 5.06582C21.7895 5.19902 21.8324 5.3709 21.8582 5.54707C21.9012 5.84356 21.8969 6.15293 21.8969 6.3291C21.9055 6.7459 22 7.93613 22 9.25527ZM3.70391 15.7607C3.91016 16.242 4.52891 17.2088 4.82969 17.3807C4.90273 17.4236 5.54297 17.6256 7.1457 17.733C8.61953 17.8318 10.248 17.8705 11.0043 17.8705C11.7605 17.8705 13.3891 17.8318 14.8629 17.733C16.4613 17.6256 17.1102 17.4279 17.1789 17.3807C17.5656 17.1143 18.0984 16.242 18.3047 15.7607C18.5109 15.2795 18.7859 14.3342 18.7344 14.2053C18.6828 14.0764 18.7859 14.0119 18.0898 14.0678C17.398 14.1193 13.0539 14.1752 11.0086 14.1752C8.96758 14.1752 4.62344 14.1193 3.92734 14.0678C3.23125 14.0162 3.33438 14.0764 3.28281 14.2053C3.22266 14.3342 3.49766 15.2752 3.70391 15.7607ZM5.28516 10.3811C4.97578 10.3037 4.79102 10.1361 4.4043 10.1404C4.01758 10.1404 2.97344 10.3166 2.75 10.3252C2.52656 10.3338 2.32891 10.1748 2.21289 10.1447C2.09688 10.1146 1.86914 10.1963 1.52539 10.3037C1.18164 10.4111 0.979688 10.3811 0.867969 10.8494C0.751954 11.3135 0.867969 11.9795 0.867969 11.9795C1.61133 12.0139 2.32891 11.9451 3.67383 11.567C5.01875 11.1889 5.76641 10.4627 5.76641 10.4627C5.76641 10.4627 5.59453 10.4584 5.28516 10.3811ZM15.3914 6.99512C14.777 6.91348 12.2031 6.89199 11 6.89199C9.79688 6.89199 7.22305 6.91777 6.60859 6.99512C5.98125 7.07676 5.16484 7.82871 5.72774 8.42598C6.48828 9.23809 6.34649 9.21231 8.07383 9.43574C9.56914 9.6291 10.7035 9.6377 11 9.6377C11.2922 9.6377 12.4309 9.62481 13.9262 9.43574C15.6535 9.21231 15.5117 9.23809 16.2723 8.42598C16.8352 7.82871 16.0188 7.07676 15.3914 6.99512ZM21.132 10.8451C21.016 10.3811 20.8184 10.4068 20.4746 10.2994C20.1309 10.192 19.9031 10.1146 19.7871 10.1404C19.6711 10.1662 19.4734 10.3252 19.25 10.3209C19.0266 10.3123 17.9824 10.1361 17.5957 10.1361C17.209 10.1361 17.0242 10.2994 16.7148 10.3768C16.4055 10.4541 16.2336 10.4541 16.2336 10.4541C16.2336 10.4541 16.977 11.1846 18.3262 11.5584C19.6711 11.9365 20.3887 12.0053 21.132 11.9709C21.132 11.9795 21.248 11.3135 21.132 10.8451Z" fill="black"/>
<g clip-path="url(#clip1_39_987)">
<path d="M9.66851 14.3162C9.7046 14.3549 9.75084 14.3827 9.80195 14.3964C9.85307 14.4101 9.90701 14.4092 9.95763 14.3938L13.1594 13.4086L11.5681 21.0994C11.5539 21.1679 11.5658 21.2392 11.6015 21.2993C11.6371 21.3595 11.6939 21.4042 11.7607 21.4248C11.8275 21.4456 11.8997 21.4407 11.9631 21.4111C12.0265 21.3814 12.0765 21.3291 12.1033 21.2645L16.322 11.1395C16.3426 11.0901 16.3487 11.036 16.3397 10.9833C16.3306 10.9307 16.3067 10.8817 16.2708 10.8421C16.2349 10.8025 16.1884 10.774 16.1369 10.7599C16.0853 10.7457 16.0308 10.7466 15.9798 10.7623L12.7524 11.7554L13.8091 4.88643C13.8193 4.8182 13.804 4.7486 13.7663 4.69086C13.7285 4.63313 13.6709 4.59129 13.6042 4.5733C13.5376 4.55531 13.4668 4.56243 13.4051 4.59331C13.3434 4.62418 13.2952 4.67665 13.2696 4.74074L9.61338 14.022C9.59395 14.0712 9.58881 14.125 9.59856 14.177C9.60832 14.2291 9.63256 14.2773 9.66851 14.3162Z" fill="#FB3B3B"/>
<path d="M5.72632 18.2485C5.76275 18.2901 5.8107 18.32 5.8641 18.3345C5.91751 18.3489 5.97398 18.3472 6.02641 18.3295L8.96969 17.3485L8.4716 20.8355C8.46202 20.903 8.47727 20.9716 8.51453 21.0287C8.55179 21.0858 8.60852 21.1274 8.67416 21.1458C8.7398 21.1642 8.80989 21.1581 8.87139 21.1287C8.93289 21.0993 8.98162 21.0486 9.00851 20.9859L11.5398 15.0797C11.561 15.0299 11.5674 14.975 11.5582 14.9217C11.549 14.8683 11.5246 14.8187 11.4879 14.7789C11.4512 14.7391 11.4038 14.7107 11.3514 14.6972C11.299 14.6836 11.2438 14.6855 11.1924 14.7025L8.34223 15.6526L10.1434 9.99187C10.1568 9.94969 10.1601 9.90492 10.153 9.86122C10.1459 9.81752 10.1286 9.77611 10.1024 9.74038C10.0763 9.70466 10.042 9.67562 10.0025 9.65564C9.963 9.63565 9.91932 9.62529 9.87504 9.6254C9.82213 9.62537 9.77028 9.64026 9.72546 9.66837C9.68063 9.69648 9.64465 9.73666 9.62163 9.7843L5.68413 17.9406C5.66019 17.9904 5.65142 18.0461 5.65892 18.1009C5.66643 18.1556 5.68986 18.207 5.72632 18.2485Z" fill="#FB3B3B"/>
</g>
</g>
<defs>
<clipPath id="clip0_39_987">
<rect width="22" height="22" fill="white" transform="matrix(1 8.74228e-08 8.74228e-08 -1 0 22)"/>
</clipPath>
<clipPath id="clip1_39_987">
<rect width="18" height="18" fill="white" transform="translate(20 22) rotate(-180)"/>
</clipPath>
</defs>
</svg>
