<svg width="22" height="22" viewBox="0 0 22 22" fill="none" xmlns="http://www.w3.org/2000/svg">
<path d="M0.137598 16.7969C0.16338 16.973 0.206347 17.1449 0.2708 17.2781C0.386816 17.5145 0.498535 17.5359 0.936815 17.5145C1.504 17.4887 2.31611 17.5145 3.17549 17.5488C3.17549 17.7852 3.16689 17.8969 3.16689 17.8969C3.11104 18.5457 2.81885 18.5672 2.70283 18.5672H0.855175C0.691895 18.5672 0.541504 18.5672 0.425488 18.4898C0.275097 18.391 0.210644 18.1031 0.154785 17.6004C0.146191 17.5273 0.141895 17.4328 0.137598 17.3211V17.3168C0.137598 17.2824 0.133301 17.2395 0.133301 17.1922V17.1449C0.133301 17.0289 0.133301 16.9 0.137598 16.7969ZM21.8712 16.7969C21.8454 16.973 21.8024 17.1449 21.738 17.2781C21.622 17.5145 21.5103 17.5359 21.072 17.5145C20.5048 17.4887 19.6927 17.5145 18.8333 17.5488C18.8333 17.7852 18.8419 17.8969 18.8419 17.8969C18.8978 18.5457 19.1899 18.5672 19.306 18.5672H21.1536C21.3169 18.5672 21.4544 18.5672 21.5833 18.4898C21.738 18.3996 21.7981 18.1031 21.854 17.6004C21.8626 17.5273 21.8669 17.4328 21.8712 17.3211V17.3168C21.8712 17.2824 21.8755 17.2395 21.8755 17.1922V17.1449C21.8712 17.0289 21.8712 16.9 21.8712 16.7969Z" fill="black"/>
<path d="M0 12.7447C0 11.4256 0.171875 10.1365 0.240625 9.99473C0.292189 9.8916 0.623047 9.6209 1.375 9.10957C2.13555 8.58965 2.11836 8.66699 2.25586 8.32754C2.13125 8.28887 2.01094 8.21582 1.93789 8.20723C1.77461 8.19004 1.76602 8.34473 1.42656 8.34473C1.08711 8.34473 0.352345 8.25449 0.201954 8.1041C0.0515633 7.95371 0.00429726 7.90215 0.00429726 7.76895C0.00429726 7.63574 0.0816402 7.36074 0.227734 7.19746C0.373827 7.03418 0.996876 6.95254 1.36211 6.90527C1.72734 6.85801 1.77891 6.90527 1.87344 6.96543C2.02383 7.05996 2.03242 7.92363 2.03242 7.92363L2.38906 7.93223C2.62109 7.36074 2.94336 6.20918 3.44609 5.30254C3.99609 4.31426 4.57187 4.00488 4.8125 3.92754C5.04883 3.85449 5.26367 3.80293 6.875 3.63965C8.5207 3.46777 9.83125 3.44629 11 3.44629C12.1687 3.44629 13.4793 3.47207 15.125 3.63965C16.7363 3.80723 16.9512 3.85449 17.1875 3.92754C17.4238 4.00059 18.0039 4.31426 18.5539 5.30254C19.0566 6.20918 19.3789 7.36074 19.6109 7.93223L19.9676 7.92363C19.9676 7.92363 19.9719 7.05996 20.1266 6.96543C20.2211 6.90527 20.2727 6.85371 20.6379 6.90527C21.0031 6.95684 21.6262 7.03418 21.7723 7.19746C21.9184 7.36074 21.9957 7.63574 21.9957 7.76895C21.9957 7.90215 21.9484 7.95801 21.798 8.1041C21.6477 8.25449 20.9129 8.34473 20.5734 8.34473C20.234 8.34473 20.2254 8.19004 20.0621 8.20723C19.9891 8.21582 19.8645 8.28887 19.7441 8.32754C19.8859 8.66699 19.8645 8.58965 20.625 9.10957C21.377 9.6252 21.7121 9.8916 21.7594 9.99473C21.8281 10.1365 22 11.4256 22 12.7447C22 14.0639 21.9055 15.2498 21.9055 15.6709C21.9055 15.8471 21.9055 16.1564 21.8668 16.4529C21.841 16.6291 21.8023 16.801 21.7336 16.9342C21.6176 17.1705 21.5102 17.192 21.0676 17.1705C20.5004 17.1447 19.6797 17.1705 18.8332 17.2049C18.266 17.2264 17.6859 17.2479 17.1703 17.2607C15.8812 17.2865 16.2594 17.0717 15.7094 17.0803C15.1594 17.0889 12.9895 17.1791 11.0043 17.1791C9.01914 17.1791 6.84492 17.0889 6.29922 17.0803C5.74922 17.0717 6.12734 17.2865 4.83828 17.2607C4.32266 17.2521 3.74258 17.2264 3.17539 17.2049C2.32891 17.1748 1.50391 17.1447 0.941015 17.1705C0.498438 17.192 0.391016 17.1705 0.275 16.9342C0.210546 16.801 0.167578 16.6291 0.141796 16.4529C0.0988274 16.1564 0.103125 15.8471 0.103125 15.6709C0.0945301 15.2541 0 14.0639 0 12.7447ZM18.2961 6.23926C18.0898 5.75801 17.4711 4.79121 17.1703 4.61934C17.0973 4.57637 16.457 4.37441 14.8543 4.26699C13.3805 4.16816 11.752 4.12949 10.9957 4.12949C10.2395 4.12949 8.61094 4.16816 7.13711 4.26699C5.53867 4.37441 4.88984 4.57207 4.82109 4.61934C4.43438 4.88574 3.90156 5.75801 3.69531 6.23926C3.48906 6.72051 3.21406 7.66582 3.26562 7.79473C3.31719 7.92363 3.21406 7.98809 3.91016 7.93223C4.60195 7.88066 8.94609 7.82481 10.9914 7.82481C13.0324 7.82481 17.3766 7.88066 18.0727 7.93223C18.7687 7.98379 18.6656 7.92363 18.7172 7.79473C18.7773 7.66582 18.5023 6.7248 18.2961 6.23926ZM16.7148 11.6189C17.0242 11.6963 17.209 11.8639 17.5957 11.8596C17.9824 11.8596 19.0266 11.6834 19.25 11.6748C19.4734 11.6662 19.6711 11.8252 19.7871 11.8553C19.9031 11.8854 20.1309 11.8037 20.4746 11.6963C20.8184 11.5889 21.0203 11.6189 21.132 11.1506C21.248 10.6865 21.132 10.0205 21.132 10.0205C20.3887 9.98613 19.6711 10.0549 18.3262 10.433C16.9812 10.8111 16.2336 11.5373 16.2336 11.5373C16.2336 11.5373 16.4055 11.5416 16.7148 11.6189ZM6.60859 15.0049C7.22305 15.0865 9.79688 15.108 11 15.108C12.2031 15.108 14.777 15.0822 15.3914 15.0049C16.0187 14.9232 16.8352 14.1713 16.2723 13.574C15.5117 12.7619 15.6535 12.7877 13.9262 12.5643C12.4309 12.3709 11.2965 12.3623 11 12.3623C10.7078 12.3623 9.56914 12.3752 8.07383 12.5643C6.34648 12.7877 6.48828 12.7619 5.72773 13.574C5.16484 14.1713 5.98125 14.9232 6.60859 15.0049ZM0.86797 11.1549C0.983984 11.6189 1.18164 11.5932 1.52539 11.7006C1.86914 11.808 2.09687 11.8854 2.21289 11.8596C2.32891 11.8338 2.52656 11.6748 2.75 11.6791C2.97344 11.6877 4.01758 11.8639 4.4043 11.8639C4.79102 11.8639 4.97578 11.7006 5.28516 11.6232C5.59453 11.5459 5.76641 11.5459 5.76641 11.5459C5.76641 11.5459 5.02305 10.8154 3.67383 10.4416C2.32891 10.0635 1.61133 9.99473 0.86797 10.0291C0.86797 10.0205 0.751953 10.6865 0.86797 11.1549Z" fill="black"/>
<path d="M4.21871 8.28125C4.16774 8.28128 4.11773 8.29517 4.07404 8.32143C4.03034 8.34768 3.99461 8.38532 3.97065 8.43031L1.72065 12.6493C1.69777 12.6922 1.68638 12.7402 1.68759 12.7888C1.68879 12.8374 1.70256 12.8848 1.72754 12.9264C1.75252 12.9681 1.78786 13.0026 1.83013 13.0265C1.87239 13.0505 1.92014 13.0631 1.96871 13.0631H3.32856L2.81584 16.3953C2.80656 16.4562 2.81751 16.5184 2.84699 16.5724C2.87648 16.6264 2.92288 16.6693 2.97907 16.6944C3.03526 16.7196 3.09814 16.7256 3.15807 16.7115C3.218 16.6975 3.27167 16.6641 3.31084 16.6167L7.24862 11.8348C7.28244 11.7937 7.30388 11.7438 7.31045 11.6909C7.31702 11.6381 7.30845 11.5845 7.28573 11.5363C7.26302 11.4881 7.22709 11.4474 7.18213 11.4188C7.13718 11.3903 7.08503 11.3751 7.03177 11.375H5.25512L6.71565 8.69722C6.73901 8.6544 6.75084 8.60625 6.74997 8.55748C6.7491 8.50871 6.73556 8.46101 6.71068 8.41905C6.6858 8.3771 6.65044 8.34233 6.60807 8.31817C6.5657 8.29401 6.51777 8.28129 6.46899 8.28125H4.21871Z" fill="#E7E9EC"/>
</svg>
