<svg width="102" height="102" viewBox="0 0 102 102" fill="none" xmlns="http://www.w3.org/2000/svg">
                <path d="M73.3125 39.5039L50.1234 62.693L44.3461 68.4703L38.5488 62.693L28.8867 53.0309L34.684 47.2336L44.3461 56.8957L67.5152 33.7266L73.3125 39.5039Z" fill="#FCC047"/>
                <path d="M19.7227 53.0938H3.58594C2.49023 53.0938 1.59375 52.1973 1.59375 51.1016C1.59375 50.0059 2.49023 49.1094 3.58594 49.1094H19.7227C20.8184 49.1094 21.7148 50.0059 21.7148 51.1016C21.7148 52.1973 20.8184 53.0938 19.7227 53.0938Z" fill="#0299F8"/>
                <path d="M98.6133 53.0938H82.4766C81.3809 53.0938 80.4844 52.1973 80.4844 51.1016C80.4844 50.0059 81.3809 49.1094 82.4766 49.1094H98.6133C99.709 49.1094 100.605 50.0059 100.605 51.1016C100.605 52.1973 99.709 53.0938 98.6133 53.0938Z" fill="#0299F8"/>
                <path d="M51.0996 21.7148C50.0039 21.7148 49.1074 20.8184 49.1074 19.7227V3.58594C49.1074 2.49023 50.0039 1.59375 51.0996 1.59375C52.1953 1.59375 53.0918 2.49023 53.0918 3.58594V19.7227C53.0918 20.8184 52.1953 21.7148 51.0996 21.7148Z" fill="#0299F8"/>
                <path d="M51.0996 100.725C50.0039 100.725 49.1074 99.8285 49.1074 98.7328V82.4766C49.1074 81.3809 50.0039 80.4844 51.0996 80.4844C52.1953 80.4844 53.0918 81.3809 53.0918 82.4766V98.7328C53.0918 99.8285 52.1953 100.725 51.0996 100.725Z" fill="#0299F8"/>
                <path d="M84.8074 86.58C84.2895 86.58 83.7914 86.3808 83.393 86.0023L71.9777 74.587C71.2008 73.8101 71.2008 72.555 71.9777 71.778C72.7547 71.0011 74.0098 71.0011 74.7867 71.778L86.202 83.1933C86.9789 83.9702 86.9789 85.2253 86.202 86.0023C85.8234 86.3808 85.3254 86.58 84.8074 86.58Z" fill="url(#paint0_linear_246_2627)"/>
                <path d="M16.6546 85.8421C16.1367 85.8421 15.6386 85.6429 15.2402 85.2644C14.4632 84.4874 14.4632 83.2323 15.2402 82.4554L26.6753 71.0202C27.4523 70.2433 28.7074 70.2433 29.4843 71.0202C30.2613 71.7972 30.2613 73.0522 29.4843 73.8292L18.0691 85.2644C17.6707 85.6429 17.1726 85.8421 16.6546 85.8421Z" fill="#0299F8"/>
                <path d="M72.4161 30.064C71.8981 30.064 71.4001 29.8647 71.0017 29.4862C70.2247 28.7093 70.2247 27.4542 71.0017 26.6772L82.4169 15.2819C83.1939 14.505 84.4489 14.505 85.2259 15.2819C86.0028 16.0589 86.0028 17.314 85.2259 18.0909L73.8306 29.4862C73.4321 29.8647 72.9341 30.064 72.4161 30.064Z" fill="#0299F8"/>
                <path d="M28.8668 30.939C28.3489 30.939 27.8508 30.7397 27.4524 30.3612L16.0571 18.9659C15.2801 18.189 15.2801 16.9339 16.0571 16.1569C16.834 15.38 18.0891 15.38 18.8661 16.1569L30.2614 27.5522C31.0383 28.3292 31.0383 29.5843 30.2614 30.3612C29.8829 30.7397 29.3848 30.939 28.8668 30.939Z" fill="#0299F8"/>
                <path d="M39.2462 24.0248C38.4493 24.0248 37.7122 23.5467 37.3934 22.7697L34.3852 15.2193C33.9868 14.2033 34.4848 13.0478 35.5008 12.6295C36.5169 12.231 37.6723 12.7291 38.0907 13.7451L41.0989 21.2955C41.4973 22.3115 40.9993 23.467 39.9833 23.8853C39.7442 23.9849 39.4852 24.0248 39.2462 24.0248ZM21.8942 41.5959C21.6551 41.5959 21.4161 41.556 21.1969 41.4764L14.4633 38.9463C13.4274 38.5678 12.9094 37.4123 13.3079 36.3764C13.6864 35.3404 14.8419 34.8224 15.8778 35.2209L22.6114 37.751C23.6473 38.1295 24.1653 39.2849 23.7669 40.3209C23.468 41.0978 22.6911 41.5959 21.8942 41.5959ZM15.1606 68.5103C14.4833 68.5103 13.8059 68.1517 13.4473 67.5142C12.8895 66.558 13.2083 65.3428 14.1645 64.7849L20.8981 60.8603C21.8544 60.3025 23.0696 60.6213 23.6274 61.5775C24.1852 62.5338 23.8665 63.749 22.9102 64.3068L16.1766 68.2314C15.8579 68.4306 15.4993 68.5103 15.1606 68.5103ZM34.963 88.8306C34.704 88.8306 34.4649 88.7908 34.2059 88.6912C33.1899 88.2728 32.6919 87.1174 33.1102 86.1013L36.0786 78.8498C36.4969 77.8338 37.6524 77.3357 38.6684 77.7541C39.6844 78.1724 40.1825 79.3279 39.7641 80.3439L36.7958 87.5955C36.4969 88.3724 35.7399 88.8306 34.963 88.8306ZM67.4157 88.8306C66.6387 88.8306 65.9216 88.3724 65.5829 87.6353L62.4352 80.3838C61.9969 79.3678 62.4551 78.1924 63.4712 77.7541C64.4872 77.3158 65.6626 77.774 66.1008 78.79L69.2485 86.0416C69.6868 87.0576 69.2286 88.233 68.2126 88.6713C67.9536 88.7709 67.6747 88.8306 67.4157 88.8306ZM86.7598 67.3748C86.5008 67.3748 86.2219 67.315 85.963 67.2154L79.5083 64.4263C78.4923 63.9881 78.034 62.8127 78.4723 61.8166C78.9106 60.8006 80.086 60.3424 81.0821 60.7807L87.5368 63.5697C88.5528 64.008 89.011 65.1834 88.5727 66.1795C88.254 66.9166 87.5368 67.3748 86.7598 67.3748ZM79.7673 40.3408C79.0102 40.3408 78.2731 39.9025 77.9344 39.1455C77.4962 38.1295 77.9544 36.9541 78.9505 36.5158L85.943 33.4279C86.959 32.9896 88.1344 33.4478 88.5727 34.4439C89.011 35.4599 88.5528 36.6353 87.5567 37.0736L80.5641 40.1615C80.3051 40.281 80.0462 40.3408 79.7673 40.3408ZM63.7301 24.3635C63.5508 24.3635 63.3516 24.3435 63.1723 24.2838C62.1165 23.965 61.5188 22.8693 61.8176 21.8135L64.1485 13.9244C64.4673 12.8685 65.563 12.2709 66.6188 12.5697C67.6747 12.8885 68.2723 13.9842 67.9735 15.04L65.6426 22.9291C65.3837 23.8056 64.5868 24.3635 63.7301 24.3635Z" fill="#2C2D92"/>
                <path d="M77.7551 2.15234C77.7551 2.15234 77.7551 8.3082 71.6192 8.3082C71.6192 8.3082 77.7551 8.3082 77.7551 14.4641C77.7551 14.4641 77.7551 8.3082 83.911 8.3082C83.911 8.3082 77.7551 8.3082 77.7551 2.15234ZM73.8504 11.0973C73.8504 11.0973 73.8504 13.3285 71.6192 13.3285C71.6192 13.3285 73.8504 13.3285 73.8504 15.5598C73.8504 15.5598 73.8504 13.3285 76.0817 13.3285C76.0817 13.3285 73.8504 13.3285 73.8504 11.0973ZM23.1493 70.066C23.1493 70.066 23.1493 73.5324 19.6829 73.5324C19.6829 73.5324 23.1493 73.5324 23.1493 76.9988C23.1493 76.9988 23.1493 73.5324 26.6157 73.5324C26.6356 73.5324 23.1493 73.5324 23.1493 70.066Z" fill="#FCC047"/>
                <defs>
                <linearGradient id="paint0_linear_246_2627" x1="71.395" y1="78.8875" x2="86.7847" y2="78.8875" gradientUnits="userSpaceOnUse">
                <stop stop-color="#381FA1"/>
                <stop offset="1" stop-color="#5F2FC9"/>
                </linearGradient>
                </defs>
            </svg>